# xmcd
#
# Track frame offsets: 
#        150
#        27415
#        51705
#        73170
#        95815
#        117210
#        143250
#        171670
#        192345
#        212122
#
# Disc length: 3116 seconds
#
# Revision: 0
# Processed by: cddbd v1.5.2PL0 Copyright (c) Steve Scherf et al.
# Submitted via: ExactAudioCopy v1.0b3
#
DISCID=9f0c2a0a
DTITLE=Tuan Vu - Nhung Doi Hoa Sim
DYEAR=1990
DGENRE=
TTITLE0=Nhung doi hoa sim
TTITLE1=Anh khong chet dau em
TTITLE2=Bai ca ky niem
TTITLE3=Nguoi ve don vi moi
TTITLE4=Ke chuyen trong dem
TTITLE5=Chuyen di ve sang
TTITLE6=Ngay do xa roi
TTITLE7=Ta tu trong dem
TTITLE8=Giua long dat Me
TTITLE9=Tinh hau phuong
EXTD=
EXTT0=
EXTT1=
EXTT2=
EXTT3=
EXTT4=
EXTT5=
EXTT6=
EXTT7=
EXTT8=
EXTT9=
PLAYORDER=
